<svg version="1.1" xmlns="http://www.w3.org/2000/svg" viewBox="0 0 1784.0944139471521 893.4690741417872" width="3568.1888278943043" height="1786.9381482835745">
  <!-- svg-source:excalidraw -->
  
  <defs>
    <style class="style-fonts">
      @font-face {
        font-family: "Virgil";
        src: url("https://excalidraw.com/Virgil.woff2");
      }
      @font-face {
        font-family: "Cascadia";
        src: url("https://excalidraw.com/Cascadia.woff2");
      }
      @font-face {
        font-family: "Assistant";
        src: url("https://excalidraw.com/Assistant-Regular.woff2");
      }
    </style>
    
  </defs>
  <rect x="0" y="0" width="1784.0944139471521" height="893.4690741417872" fill="#ffffff"></rect><g stroke-linecap="round" transform="translate(483.1720423454626 10.095002122567053) rotate(0 302.4280804718328 206.4284356178506)"><path d="M32 0 C156.76 -0.01, 279.15 -0.85, 572.86 0 C595.34 -0.82, 602.02 9.97, 604.86 32 C605.45 169.79, 603.63 309.28, 604.86 380.86 C606.42 405.4, 591.79 413.11, 572.86 412.86 C427.85 414.58, 281.37 415.82, 32 412.86 C13.96 410.48, 0.51 402.14, 0 380.86 C1.46 254, 5.85 128.41, 0 32 C-1.74 11.31, 11.71 -0.27, 32 0" stroke="none" stroke-width="0" fill="#ffec99"></path><path d="M32 0 C227.17 -0.56, 422.99 0.25, 572.86 0 M32 0 C217.38 1.81, 401.7 1.72, 572.86 0 M572.86 0 C595.06 -1.82, 606.62 11.72, 604.86 32 M572.86 0 C594 -0.19, 606.05 10.76, 604.86 32 M604.86 32 C606.68 150.32, 606.52 268.3, 604.86 380.86 M604.86 32 C604.02 138.33, 603.57 243.43, 604.86 380.86 M604.86 380.86 C605.26 402.2, 593.15 411.14, 572.86 412.86 M604.86 380.86 C606.31 404.19, 593.14 411.85, 572.86 412.86 M572.86 412.86 C420.31 411.88, 268.9 411.99, 32 412.86 M572.86 412.86 C463.44 412.04, 354.18 411.96, 32 412.86 M32 412.86 C9.25 412.19, 0.75 402.54, 0 380.86 M32 412.86 C9.7 413.88, 1.62 400.91, 0 380.86 M0 380.86 C-1.53 267.69, -1.71 154.27, 0 32 M0 380.86 C0.26 254.62, -0.37 129.15, 0 32 M0 32 C1.31 12.02, 10.99 -1.85, 32 0 M0 32 C0.05 10.5, 12.79 -0.44, 32 0" stroke="#1e1e1e" stroke-width="2" fill="none"></path></g><g transform="translate(637.9438728172954 194.92343774041763) rotate(0 147.65625 21.600000000000023)"><text x="147.65625" y="0" font-family="Cascadia, Segoe UI Emoji" font-size="36px" fill="#1e1e1e" text-anchor="middle" style="white-space: pre;" direction="ltr" dominant-baseline="text-before-edge">Rubra Frontend</text></g><g stroke-linecap="round" transform="translate(1266.8780815617865 10) rotate(0 253.6081661926828 203.73764020514324)"><path d="M32 0 C180.97 -0.64, 325.77 -0.17, 475.22 0 C494.43 -3.27, 505.61 13.62, 507.22 32 C510.52 133.4, 507.87 233.96, 507.22 375.48 C510.43 400.33, 496.45 404.07, 475.22 407.48 C362.51 406.61, 251.55 408.03, 32 407.48 C10.36 406.85, 2.31 399.13, 0 375.48 C2.54 242.48, 0.79 113.54, 0 32 C-1.06 13.92, 13.03 -1.17, 32 0" stroke="none" stroke-width="0" fill="#a5d8ff"></path><path d="M32 0 C139.89 0.74, 247.12 -0.47, 475.22 0 M32 0 C181.47 -1.1, 330.17 -0.61, 475.22 0 M475.22 0 C496.58 0.49, 508.41 9.04, 507.22 32 M475.22 0 C498.67 0.84, 508.01 10.48, 507.22 32 M507.22 32 C506.9 169.65, 506.46 306.68, 507.22 375.48 M507.22 32 C506.82 124.28, 507.17 217.33, 507.22 375.48 M507.22 375.48 C505.29 394.9, 496.55 406.63, 475.22 407.48 M507.22 375.48 C506.14 395.32, 497.88 408.42, 475.22 407.48 M475.22 407.48 C347.24 410.42, 221.44 409.6, 32 407.48 M475.22 407.48 C323.39 409.16, 171.43 408.93, 32 407.48 M32 407.48 C11.9 405.57, -0.61 396.9, 0 375.48 M32 407.48 C12.28 405.77, -1.9 395.97, 0 375.48 M0 375.48 C-0.62 292.76, 1.65 209.87, 0 32 M0 375.48 C-0.48 244, 0.45 112.23, 0 32 M0 32 C0.09 9, 10.3 0.33, 32 0 M0 32 C0.93 9.1, 12.82 -1.19, 32 0" stroke="#1e1e1e" stroke-width="2" fill="none"></path></g><g transform="translate(1383.3768727544684 192.13764020514327) rotate(0 137.109375 21.600000000000023)"><text x="137.109375" y="0" font-family="Cascadia, Segoe UI Emoji" font-size="36px" fill="#1e1e1e" text-anchor="middle" style="white-space: pre;" direction="ltr" dominant-baseline="text-before-edge">Rubra Backend</text></g><g stroke-linecap="round"><g transform="translate(1092.8397813791435 227.2977961115489) rotate(0 83.84775570562942 0.7460460801586919)"><path d="M0.81 0.29 C28.78 0.23, 139.73 0.21, 167.38 0.52 M-0.22 -0.6 C27.59 -0.62, 138.05 1.43, 166.27 1.54" stroke="#1e1e1e" stroke-width="2" fill="none"></path></g><g transform="translate(1092.8397813791435 227.2977961115489) rotate(0 83.84775570562942 0.7460460801586919)"><path d="M142.67 9.81 C149.39 6.92, 153.56 3.57, 166.27 1.54 M142.67 9.81 C150.89 6.71, 159.85 2.78, 166.27 1.54" stroke="#1e1e1e" stroke-width="2" fill="none"></path></g><g transform="translate(1092.8397813791435 227.2977961115489) rotate(0 83.84775570562942 0.7460460801586919)"><path d="M142.88 -7.29 C149.66 -5.62, 153.78 -4.41, 166.27 1.54 M142.88 -7.29 C151.2 -4.37, 160.08 -2.28, 166.27 1.54" stroke="#1e1e1e" stroke-width="2" fill="none"></path></g></g><mask></mask><g stroke-linecap="round" transform="translate(10.000000000001819 112.8202384182797) rotate(0 121.89051743357322 111.21116118500868)"><path d="M64.32 12.94 C75.17 5.8, 91.38 2.42, 105.35 0.69 C119.31 -1.04, 134.5 -0.32, 148.1 2.55 C161.69 5.41, 175.21 11.11, 186.91 17.87 C198.61 24.64, 209.7 33.27, 218.29 43.17 C226.88 53.06, 234.37 65.33, 238.46 77.26 C242.55 89.19, 243.36 102.05, 242.83 114.74 C242.3 127.43, 240.55 141.55, 235.29 153.4 C230.03 165.24, 220.71 176.56, 211.27 185.82 C201.83 195.07, 190.79 202.98, 178.63 208.91 C166.47 214.84, 151.94 219.69, 138.32 221.4 C124.69 223.1, 110.46 221.99, 96.89 219.15 C83.33 216.31, 68.84 211.13, 56.93 204.36 C45.01 197.58, 33.87 188.37, 25.41 178.51 C16.95 168.66, 10.33 157.17, 6.16 145.2 C1.98 133.23, -0.16 119.49, 0.36 106.71 C0.89 93.93, 4.16 80.34, 9.32 68.53 C14.47 56.71, 20.19 46.06, 31.31 35.82 C42.43 25.58, 66.43 12.07, 76.04 7.1 C85.66 2.12, 88.01 4.03, 88.99 5.97 M158.17 4.94 C171.43 6.94, 183.81 14.47, 194.69 22.15 C205.57 29.83, 215.65 40.16, 223.46 51 C231.27 61.84, 238.36 75.07, 241.53 87.2 C244.71 99.33, 244.38 111.3, 242.51 123.76 C240.64 136.22, 236.45 150.52, 230.32 161.98 C224.19 173.45, 215.67 184.13, 205.71 192.56 C195.76 200.99, 183.36 207.75, 170.6 212.56 C157.85 217.38, 143.3 220.74, 129.19 221.45 C115.09 222.15, 99.23 220.54, 85.96 216.81 C72.68 213.07, 60.76 206.38, 49.53 199.04 C38.31 191.69, 26.23 183.25, 18.63 172.74 C11.04 162.24, 6.68 148.72, 3.96 136 C1.24 123.29, 0.84 109.07, 2.33 96.44 C3.82 83.81, 6.84 71.3, 12.89 60.22 C18.94 49.14, 28.6 38.55, 38.62 29.97 C48.64 21.4, 59.95 13.58, 72.99 8.78 C86.03 3.99, 102.94 1.75, 116.84 1.2 C130.74 0.65, 149.71 4.77, 156.39 5.49 C163.07 6.21, 157.35 4.06, 156.93 5.53" stroke="none" stroke-width="0" fill="#ffc9c9"></path><path d="M115.28 -0.39 C128.29 -2.7, 143.48 1.3, 156.73 5.09 C169.99 8.89, 183.69 14.75, 194.81 22.38 C205.93 30.01, 215.69 40.37, 223.46 50.86 C231.24 61.35, 238.06 73.24, 241.46 85.34 C244.86 97.44, 245.57 110.81, 243.85 123.46 C242.14 136.1, 237.41 149.7, 231.19 161.2 C224.98 172.7, 216.7 183.89, 206.57 192.45 C196.45 201.01, 183.33 207.67, 170.45 212.54 C157.57 217.42, 143.35 220.74, 129.28 221.71 C115.21 222.68, 99.48 221.94, 86.01 218.38 C72.54 214.81, 59.51 208.12, 48.47 200.31 C37.42 192.51, 27.38 182.08, 19.76 171.55 C12.13 161.02, 5.92 149.45, 2.7 137.15 C-0.52 124.84, -1.31 110.26, 0.42 97.75 C2.16 85.25, 6.69 73.49, 13.11 62.13 C19.54 50.76, 28.92 38.52, 38.97 29.55 C49.01 20.58, 60.4 13.22, 73.38 8.31 C86.37 3.4, 109.27 1, 116.86 0.1 C124.44 -0.79, 118.92 0.93, 118.89 2.92 M64.25 12.36 C74.77 4.95, 89.38 2.43, 103.04 0.84 C116.7 -0.76, 132.36 0.3, 146.19 2.81 C160.02 5.31, 174.33 9.13, 186.02 15.84 C197.71 22.56, 207.75 32.91, 216.3 43.12 C224.85 53.32, 232.9 65.37, 237.31 77.08 C241.73 88.79, 243.39 100.75, 242.81 113.36 C242.22 125.97, 238.57 140.77, 233.79 152.75 C229 164.74, 223.1 175.69, 214.12 185.26 C205.13 194.84, 192.47 204.39, 179.88 210.18 C167.29 215.97, 152.2 218.32, 138.57 220.02 C124.94 221.73, 111.41 222.96, 98.09 220.42 C84.78 217.88, 70.73 211.56, 58.69 204.78 C46.64 198, 34.75 189.62, 25.82 179.74 C16.88 169.86, 9.34 157.31, 5.09 145.51 C0.83 133.72, -0.3 121.61, 0.29 108.97 C0.88 96.33, 3.49 81.87, 8.62 69.68 C13.75 57.48, 21.66 45.24, 31.07 35.81 C40.47 26.39, 59.53 16.75, 65.06 13.13 C70.58 9.5, 63.26 12.21, 64.23 14.06" stroke="#1e1e1e" stroke-width="2" fill="none"></path></g><g transform="translate(89.51340599395917 180.6932333857385) rotate(0 42.1875 43.19999999999999)"><text x="42.1875" y="0" font-family="Cascadia, Segoe UI Emoji" font-size="36px" fill="#1e1e1e" text-anchor="middle" style="white-space: pre;" direction="ltr" dominant-baseline="text-before-edge">End </text><text x="42.1875" y="43.199999999999996" font-family="Cascadia, Segoe UI Emoji" font-size="36px" fill="#1e1e1e" text-anchor="middle" style="white-space: pre;" direction="ltr" dominant-baseline="text-before-edge">user</text></g><g stroke-linecap="round"><g transform="translate(261.4646226720033 217.2507101761346) rotate(0 109.10175892939242 3.1816698682284255)"><path d="M-0.04 0.31 C36.47 1.49, 182.34 6.28, 218.65 7.21 M-1.52 -0.57 C34.91 0.27, 181.54 4.28, 217.93 5.54" stroke="#1e1e1e" stroke-width="2" fill="none"></path></g><g transform="translate(261.4646226720033 217.2507101761346) rotate(0 109.10175892939242 3.1816698682284255)"><path d="M194.19 13.37 C200.96 12.06, 208.12 8.59, 217.93 5.54 M194.19 13.37 C200.51 11.45, 206.45 8.89, 217.93 5.54" stroke="#1e1e1e" stroke-width="2" fill="none"></path></g><g transform="translate(261.4646226720033 217.2507101761346) rotate(0 109.10175892939242 3.1816698682284255)"><path d="M194.71 -3.72 C201.36 -0.53, 208.38 0.5, 217.93 5.54 M194.71 -3.72 C200.98 -1.16, 206.78 0.76, 217.93 5.54" stroke="#1e1e1e" stroke-width="2" fill="none"></path></g></g><mask></mask><g stroke-linecap="round" transform="translate(638.2071238346289 661.0467517717699) rotate(0 143.5454130187054 111.21116118500868)"><path d="M87.02 9.65 C99.75 3.69, 116.94 1.67, 132.45 0.75 C147.96 -0.16, 164.99 1.32, 180.08 4.17 C195.16 7.02, 210.08 11.18, 222.97 17.86 C235.86 24.54, 247.83 34.66, 257.39 44.25 C266.95 53.84, 275.42 64.06, 280.33 75.39 C285.25 86.72, 287.02 100.12, 286.9 112.24 C286.77 124.36, 284.83 136.81, 279.56 148.1 C274.3 159.38, 265.15 170.64, 255.29 179.96 C245.42 189.27, 233.39 197.5, 220.39 203.98 C207.39 210.46, 192.17 216.01, 177.29 218.86 C162.41 221.71, 146.64 222.21, 131.12 221.09 C115.6 219.98, 98.29 217.09, 84.16 212.18 C70.04 207.27, 57.43 199.68, 46.36 191.63 C35.29 183.58, 25.31 174.31, 17.74 163.87 C10.16 153.42, 3.57 141.06, 0.93 128.98 C-1.7 116.91, -1.06 103.16, 1.9 91.41 C4.87 79.66, 11.27 68.88, 18.71 58.49 C26.15 48.1, 34.24 37.77, 46.53 29.08 C58.81 20.39, 83.66 9.74, 92.41 6.36 C101.16 2.97, 98.03 6.86, 99.03 8.76 M168.65 0.76 C183.4 0.84, 198.13 7.84, 211.59 13.5 C225.06 19.15, 238.63 25.89, 249.43 34.69 C260.23 43.48, 270.29 55.14, 276.39 66.27 C282.49 77.4, 285.09 89.4, 286.04 101.46 C286.98 113.52, 285.58 127, 282.05 138.63 C278.52 150.25, 273.02 161.2, 264.86 171.2 C256.71 181.2, 245.44 191.12, 233.12 198.61 C220.8 206.1, 205.96 212.12, 190.97 216.16 C175.97 220.2, 158.97 222.7, 143.14 222.87 C127.32 223.03, 110.63 221.22, 96.04 217.15 C81.45 213.07, 67.88 206.02, 55.6 198.4 C43.31 190.78, 30.87 181.37, 22.31 171.43 C13.74 161.48, 7.92 150.35, 4.2 138.74 C0.48 127.12, -1.37 113.55, -0.03 101.73 C1.31 89.9, 6.06 78.68, 12.25 67.78 C18.44 56.88, 26.71 45.64, 37.09 36.34 C47.47 27.05, 60.97 17.63, 74.55 12.02 C88.13 6.41, 103.01 4.23, 118.55 2.69 C134.08 1.14, 159.6 2.73, 167.77 2.76 C175.93 2.78, 167.93 1.08, 167.53 2.83" stroke="none" stroke-width="0" fill="#ffc9c9"></path><path d="M173.07 2.96 C187.9 3.74, 202.94 10.06, 216.36 16.23 C229.79 22.4, 243.42 30.77, 253.63 39.97 C263.84 49.16, 272.03 60.3, 277.62 71.43 C283.22 82.55, 286.71 94.93, 287.18 106.74 C287.66 118.55, 284.99 130.72, 280.49 142.28 C275.99 153.84, 269.21 166.25, 260.18 176.09 C251.15 185.93, 238.83 194.39, 226.31 201.3 C213.79 208.21, 199.89 214.05, 185.07 217.53 C170.25 221.01, 152.99 222.5, 137.41 222.17 C121.82 221.85, 105.88 219.93, 91.54 215.6 C77.21 211.26, 63.14 204.24, 51.4 196.19 C39.65 188.13, 29.07 177.66, 21.06 167.27 C13.05 156.89, 6.78 145.53, 3.31 133.9 C-0.15 122.26, -1.54 109.39, 0.27 97.48 C2.08 85.56, 7.15 73.22, 14.17 62.43 C21.18 51.63, 31.31 41.38, 42.37 32.71 C53.42 24.05, 66.59 15.81, 80.48 10.44 C94.37 5.08, 108.27 1.6, 125.72 0.52 C143.17 -0.55, 173.22 2.28, 185.16 3.98 C197.09 5.68, 197.92 8.94, 197.34 10.71 M115.65 1.81 C129.61 -1.9, 148.49 -0.4, 163.59 1.28 C178.7 2.97, 192.65 6.36, 206.27 11.94 C219.88 17.51, 234.32 25.95, 245.3 34.73 C256.29 43.52, 265.53 54.03, 272.17 64.63 C278.8 75.23, 282.98 86.41, 285.11 98.33 C287.24 110.26, 288.35 124.4, 284.97 136.18 C281.59 147.95, 273.08 158.68, 264.84 169 C256.61 179.32, 247.37 190.25, 235.56 198.1 C223.74 205.96, 208.54 212.33, 193.95 216.12 C179.36 219.92, 163.69 220.73, 148.02 220.89 C132.35 221.06, 114.78 220.6, 99.94 217.12 C85.11 213.64, 71.57 207.08, 59.02 199.99 C46.47 192.91, 33.6 184.24, 24.65 174.63 C15.7 165.03, 9.14 153.98, 5.31 142.37 C1.47 130.76, 0.74 117.24, 1.66 104.97 C2.59 92.7, 5.48 79.63, 10.86 68.73 C16.23 57.83, 23.83 48.5, 33.91 39.55 C44 30.59, 57.68 21.01, 71.38 15.01 C85.07 9.01, 108.91 5.21, 116.09 3.53 C123.27 1.85, 114.1 3.14, 114.45 4.93" stroke="#1e1e1e" stroke-width="2" fill="none"></path></g><g transform="translate(686.8287268995846 728.9197467392288) rotate(0 94.921875 43.200000000000045)"><text x="94.921875" y="0" font-family="Cascadia, Segoe UI Emoji" font-size="36px" fill="#1e1e1e" text-anchor="middle" style="white-space: pre;" direction="ltr" dominant-baseline="text-before-edge">LLM App </text><text x="94.921875" y="43.199999999999996" font-family="Cascadia, Segoe UI Emoji" font-size="36px" fill="#1e1e1e" text-anchor="middle" style="white-space: pre;" direction="ltr" dominant-baseline="text-before-edge">Developer</text></g><g mask="url(#mask-jueqEmeyIu2rm-AVzrbog)" stroke-linecap="round"><g transform="translate(910.9218933835873 706.0190800869558) rotate(0 178.80796557152462 -146.10208778778758)"><path d="M0.08 0.63 C59.59 -48.12, 297.32 -243.68, 357 -292.64 M-1.33 -0.08 C58.58 -48.65, 299.55 -242.63, 359.39 -291.33" stroke="#1e1e1e" stroke-width="2" fill="none"></path></g><g transform="translate(910.9218933835873 706.0190800869558) rotate(0 178.80796557152462 -146.10208778778758)"><path d="M346.5 -269.91 C351.38 -277.27, 353.41 -281.65, 359.39 -291.33 M346.5 -269.91 C348.87 -274.78, 351.13 -279.66, 359.39 -291.33" stroke="#1e1e1e" stroke-width="2" fill="none"></path></g><g transform="translate(910.9218933835873 706.0190800869558) rotate(0 178.80796557152462 -146.10208778778758)"><path d="M335.75 -283.21 C343.79 -286.65, 348.99 -287.1, 359.39 -291.33 M335.75 -283.21 C340.64 -285.01, 345.29 -286.94, 359.39 -291.33" stroke="#1e1e1e" stroke-width="2" fill="none"></path></g></g><mask id="mask-jueqEmeyIu2rm-AVzrbog"><rect x="0" y="0" fill="#fff" width="1368.5378245266365" height="1098.2232556625308"></rect><rect x="972.5423589551119" y="535.9169922991684" fill="#000" width="234.375" height="48" opacity="1"></rect></mask><g transform="translate(972.5423589551119 535.9169922991682) rotate(0 117.40796045699153 24.098891007900193)"><text x="117.1875" y="0" font-family="Cascadia, Segoe UI Emoji" font-size="20px" fill="#1e1e1e" text-anchor="middle" style="white-space: pre;" direction="ltr" dominant-baseline="text-before-edge">Using OpenAI python </text><text x="117.1875" y="24" font-family="Cascadia, Segoe UI Emoji" font-size="20px" fill="#1e1e1e" text-anchor="middle" style="white-space: pre;" direction="ltr" dominant-baseline="text-before-edge">or javascript client</text></g></svg>